<svg xmlns="http://www.w3.org/2000/svg" width="200" height="200" viewBox="0 0 200 200">
  <!-- Starfield background tile -->
  <rect width="200" height="200" fill="#000010"/>
  <!-- Small stars -->
  <circle cx="15" cy="25" r="1" fill="#ffffff"/>
  <circle cx="45" cy="67" r="0.5" fill="#ccccff"/>
  <circle cx="78" cy="12" r="1" fill="#ffffff"/>
  <circle cx="92" cy="89" r="0.5" fill="#ffccff"/>
  <circle cx="134" cy="34" r="1" fill="#ffffff"/>
  <circle cx="156" cy="78" r="0.5" fill="#ccffff"/>
  <circle cx="23" cy="145" r="1" fill="#ffffff"/>
  <circle cx="67" cy="178" r="0.5" fill="#ffffcc"/>
  <circle cx="112" cy="156" r="1" fill="#ffffff"/>
  <circle cx="189" cy="23" r="0.5" fill="#ccccff"/>
  <circle cx="167" cy="134" r="1" fill="#ffffff"/>
  <circle cx="34" cy="89" r="0.5" fill="#ffcccc"/>
  <circle cx="178" cy="189" r="1" fill="#ffffff"/>
  <circle cx="56" cy="112" r="0.5" fill="#ccffcc"/>
  <circle cx="145" cy="67" r="1" fill="#ffffff"/>
  <circle cx="89" cy="145" r="0.5" fill="#ffccff"/>
  <!-- Larger bright stars -->
  <circle cx="100" cy="50" r="1.5" fill="#ffffff"/>
  <circle cx="50" cy="150" r="1.5" fill="#ffffcc"/>
  <circle cx="150" cy="100" r="1.5" fill="#ccffff"/>
</svg>
