<svg xmlns="http://www.w3.org/2000/svg" viewBox="0 0 140 100">
  <!-- Classic 90s webring graphic - pages arranged in a circle with arrows -->

  <!-- Central page (highlighted) -->
  <rect x="55" y="35" width="30" height="35" fill="#90EE90" stroke="#000" stroke-width="1.5"/>
  <line x1="60" y1="45" x2="80" y2="45" stroke="#000" stroke-width="1"/>
  <line x1="60" y1="52" x2="80" y2="52" stroke="#000" stroke-width="1"/>
  <line x1="60" y1="59" x2="75" y2="59" stroke="#000" stroke-width="1"/>

  <!-- Top page -->
  <rect x="55" y="2" width="22" height="26" fill="#FFFFC0" stroke="#000" stroke-width="1"/>
  <line x1="59" y1="10" x2="73" y2="10" stroke="#666" stroke-width="0.8"/>
  <line x1="59" y1="15" x2="73" y2="15" stroke="#666" stroke-width="0.8"/>
  <line x1="59" y1="20" x2="68" y2="20" stroke="#666" stroke-width="0.8"/>

  <!-- Top-right page -->
  <rect x="95" y="12" width="22" height="26" fill="#FFFFC0" stroke="#000" stroke-width="1"/>
  <line x1="99" y1="20" x2="113" y2="20" stroke="#666" stroke-width="0.8"/>
  <line x1="99" y1="25" x2="113" y2="25" stroke="#666" stroke-width="0.8"/>
  <line x1="99" y1="30" x2="108" y2="30" stroke="#666" stroke-width="0.8"/>

  <!-- Right page -->
  <rect x="105" y="45" width="22" height="26" fill="#FFFFC0" stroke="#000" stroke-width="1"/>
  <line x1="109" y1="53" x2="123" y2="53" stroke="#666" stroke-width="0.8"/>
  <line x1="109" y1="58" x2="123" y2="58" stroke="#666" stroke-width="0.8"/>
  <line x1="109" y1="63" x2="118" y2="63" stroke="#666" stroke-width="0.8"/>

  <!-- Bottom-right page -->
  <rect x="90" y="75" width="22" height="26" fill="#FFFFC0" stroke="#000" stroke-width="1" transform="translate(0,-5)"/>
  <line x1="94" y1="78" x2="108" y2="78" stroke="#666" stroke-width="0.8"/>
  <line x1="94" y1="83" x2="108" y2="83" stroke="#666" stroke-width="0.8"/>

  <!-- Bottom page -->
  <rect x="55" y="75" width="22" height="22" fill="#FFFFC0" stroke="#000" stroke-width="1"/>
  <line x1="59" y1="82" x2="73" y2="82" stroke="#666" stroke-width="0.8"/>
  <line x1="59" y1="87" x2="73" y2="87" stroke="#666" stroke-width="0.8"/>

  <!-- Bottom-left page -->
  <rect x="25" y="70" width="22" height="26" fill="#FFFFC0" stroke="#000" stroke-width="1"/>
  <line x1="29" y1="78" x2="43" y2="78" stroke="#666" stroke-width="0.8"/>
  <line x1="29" y1="83" x2="43" y2="83" stroke="#666" stroke-width="0.8"/>

  <!-- Left page -->
  <rect x="12" y="45" width="22" height="26" fill="#FFFFC0" stroke="#000" stroke-width="1"/>
  <line x1="16" y1="53" x2="30" y2="53" stroke="#666" stroke-width="0.8"/>
  <line x1="16" y1="58" x2="30" y2="58" stroke="#666" stroke-width="0.8"/>
  <line x1="16" y1="63" x2="25" y2="63" stroke="#666" stroke-width="0.8"/>

  <!-- Top-left page -->
  <rect x="22" y="12" width="22" height="26" fill="#FFFFC0" stroke="#000" stroke-width="1"/>
  <line x1="26" y1="20" x2="40" y2="20" stroke="#666" stroke-width="0.8"/>
  <line x1="26" y1="25" x2="40" y2="25" stroke="#666" stroke-width="0.8"/>
  <line x1="26" y1="30" x2="35" y2="30" stroke="#666" stroke-width="0.8"/>

  <!-- Circular arrows connecting pages -->
  <!-- Arrow from top to top-right -->
  <path d="M 78 12 Q 88 5 96 14" fill="none" stroke="#333" stroke-width="1.5" marker-end="url(#arrow)"/>
  <!-- Arrow from top-right to right -->
  <path d="M 115 38 Q 120 45 115 52" fill="none" stroke="#333" stroke-width="1.5" marker-end="url(#arrow)"/>
  <!-- Arrow from right to bottom-right -->
  <path d="M 112 72 Q 108 78 100 76" fill="none" stroke="#333" stroke-width="1.5" marker-end="url(#arrow)"/>
  <!-- Arrow from bottom-right to bottom -->
  <path d="M 88 82 Q 82 88 78 85" fill="none" stroke="#333" stroke-width="1.5" marker-end="url(#arrow)"/>
  <!-- Arrow from bottom to bottom-left -->
  <path d="M 54 85 Q 50 88 48 82" fill="none" stroke="#333" stroke-width="1.5" marker-end="url(#arrow)"/>
  <!-- Arrow from bottom-left to left -->
  <path d="M 28 68 Q 20 62 22 55" fill="none" stroke="#333" stroke-width="1.5" marker-end="url(#arrow)"/>
  <!-- Arrow from left to top-left -->
  <path d="M 22 44 Q 18 35 26 30" fill="none" stroke="#333" stroke-width="1.5" marker-end="url(#arrow)"/>
  <!-- Arrow from top-left to top -->
  <path d="M 45 18 Q 50 10 54 14" fill="none" stroke="#333" stroke-width="1.5" marker-end="url(#arrow)"/>

  <!-- Arrow marker definition -->
  <defs>
    <marker id="arrow" markerWidth="6" markerHeight="6" refX="5" refY="3" orient="auto">
      <path d="M0,0 L6,3 L0,6 Z" fill="#333"/>
    </marker>
  </defs>
</svg>