<svg xmlns="http://www.w3.org/2000/svg" viewBox="0 0 32 32">
  <!-- Sparkles/magic wand icon - neutral gold/tan -->
  <rect x="4" y="20" width="20" height="4" fill="#8a6a40" stroke="#604830" stroke-width="1" transform="rotate(-45 14 22)"/>
  <polygon points="24,4 26,8 22,8" fill="#d0a040" stroke="#a08030" stroke-width="1"/>
  <!-- Sparkles -->
  <polygon points="8,4 9,7 12,8 9,9 8,12 7,9 4,8 7,7" fill="#e0c040" stroke="#a09030" stroke-width="0.5"/>
  <polygon points="26,14 27,16 29,17 27,18 26,20 25,18 23,17 25,16" fill="#e0c040" stroke="#a09030" stroke-width="0.5"/>
  <polygon points="6,18 7,20 9,21 7,22 6,24 5,22 3,21 5,20" fill="#e0c040" stroke="#a09030" stroke-width="0.5"/>
</svg>
